<?xml version="1.0" standalone="no"?>
<!DOCTYPE svg PUBLIC "-//W3C//DTD SVG 20010904//EN"
 "http://www.w3.org/TR/2001/REC-SVG-20010904/DTD/svg10.dtd">
<svg version="1.0" xmlns="http://www.w3.org/2000/svg"
 width="256.000000pt" height="256.000000pt" viewBox="0 0 256.000000 256.000000"
 preserveAspectRatio="xMidYMid meet">
<metadata>
Created by potrace 1.11, written by Peter Selinger 2001-2013
</metadata>
<g transform="translate(0.000000,256.000000) scale(0.100000,-0.100000)"
fill="#000000" stroke="none">
<path d="M480 2400 l0 -160 -80 0 -80 0 0 -640 0 -640 80 0 80 0 0 240 0 240
240 0 240 0 0 -80 0 -80 80 0 80 0 0 160 0 160 -80 0 -80 0 0 80 0 80 -160 0
-160 0 0 160 0 160 80 0 80 0 0 80 0 80 160 0 160 0 0 -80 0 -80 320 0 320 0
0 -80 0 -80 80 0 80 0 0 -80 0 -80 80 0 80 0 0 -160 0 -160 80 0 80 0 0 400 0
400 -80 0 -80 0 0 160 0 160 -800 0 -800 0 0 -160z"/>
<path d="M1440 1440 l0 -160 80 0 80 0 0 80 0 80 80 0 80 0 0 80 0 80 -160 0
-160 0 0 -160z"/>
<path d="M800 800 l0 -160 80 0 80 0 0 -80 0 -80 80 0 80 0 0 160 0 160 80 0
80 0 0 80 0 80 -240 0 -240 0 0 -160z"/>
<path d="M480 320 l0 -320 400 0 400 0 0 80 0 80 -80 0 -80 0 0 80 0 80 -160
0 -160 0 0 80 0 80 -80 0 -80 0 0 80 0 80 -80 0 -80 0 0 -320z"/>
<path d="M0 80 l0 -80 160 0 160 0 0 80 0 80 -160 0 -160 0 0 -80z"/>
</g>
</svg>
